<?xml version="1.0" encoding="UTF-8" standalone="no"?>
<!-- Created with Inkscape (http://www.inkscape.org/) -->

<svg
   xmlns:dc="http://purl.org/dc/elements/1.1/"
   xmlns:cc="http://creativecommons.org/ns#"
   xmlns:rdf="http://www.w3.org/1999/02/22-rdf-syntax-ns#"
   xmlns:svg="http://www.w3.org/2000/svg"
   xmlns="http://www.w3.org/2000/svg"
   xmlns:sodipodi="http://sodipodi.sourceforge.net/DTD/sodipodi-0.dtd"
   xmlns:inkscape="http://www.inkscape.org/namespaces/inkscape"
   width="216.44673mm"
   height="294.17093mm"
   viewBox="0 0 216.44673 294.17093"
   version="1.1"
   id="svg8"
   inkscape:version="0.92.4 (5da689c313, 2019-01-14)"
   sodipodi:docname="logo-CovidAppManager.svg">
  <defs
     id="defs2">
    <style
       id="style4643">.a{fill:#418fde;}</style>
  </defs>
  <sodipodi:namedview
     id="base"
     pagecolor="#ffffff"
     bordercolor="#666666"
     borderopacity="1.0"
     inkscape:pageopacity="0.0"
     inkscape:pageshadow="2"
     inkscape:zoom="0.35"
     inkscape:cx="-454.67107"
     inkscape:cy="359.70229"
     inkscape:document-units="mm"
     inkscape:current-layer="layer1"
     showgrid="false"
     fit-margin-top="0"
     fit-margin-left="0"
     fit-margin-right="0"
     fit-margin-bottom="0"
     inkscape:window-width="1920"
     inkscape:window-height="1001"
     inkscape:window-x="-9"
     inkscape:window-y="-9"
     inkscape:window-maximized="1" />
  <metadata
     id="metadata5">
    <rdf:RDF>
      <cc:Work
         rdf:about="">
        <dc:format>image/svg+xml</dc:format>
        <dc:type
           rdf:resource="http://purl.org/dc/dcmitype/StillImage" />
        <dc:title></dc:title>
      </cc:Work>
    </rdf:RDF>
  </metadata>
  <g
     inkscape:label="Calque 1"
     inkscape:groupmode="layer"
     id="layer1"
     style="display:inline"
     transform="translate(-13.0216,-1.8028976)">
    <g
       id="g4612"
       transform="matrix(0.26458333,0,0,0.26458333,-25.707684,-0.84338429)">
      <g
         id="g4610"
         transform="matrix(0.1,0,0,-0.1,0,511)">
        <path
           id="path4592"
           d="M 4771.3,4981.1 C 4508,4910 4267.7,4706.3 4164,4466 l -55.7,-126.8 h -395.9 c -357.5,0 -399.8,-3.8 -455.5,-38.4 -76.9,-46.1 -121.1,-128.8 -121.1,-230.6 v -76.9 h -388.2 c -215.2,0 -445.9,-9.6 -515.1,-21.1 -369,-59.6 -680.4,-365.2 -747.6,-736.1 -15.4,-80.7 -21.1,-1189.7 -21.1,-3642 0,-3832.3 -3.8,-3669 105.7,-3886.1 71.1,-138.4 236.4,-307.5 372.9,-380.6 232.6,-123 63.4,-117.2 3057.8,-117.2 2994.4,0 2825.2,-5.8 3057.8,117.2 136.5,73 301.8,242.2 372.9,380.6 109.6,217.2 105.7,53.8 105.7,3886.1 0,2452.4 -5.8,3561.3 -21.1,3642 -67.3,370.9 -378.6,676.5 -747.6,736.1 -69.2,11.5 -299.8,21.1 -513.2,21.1 h -390.2 v 76.9 c 0,101.9 -44.2,184.5 -121.1,230.6 -55.7,34.6 -98,38.4 -455.5,38.4 H 5892 l -56,126.8 c -172.9,397.9 -647.7,628.5 -1064.7,515.1 z M 5105.7,4491 c 101.9,-25 222.9,-124.9 269.1,-221 17.3,-36.5 40.4,-121.1 48,-186.4 13.5,-92.3 28.8,-128.8 76.9,-174.9 l 57.7,-59.6 403.6,-5.8 403.6,-5.8 V 3578 3320.5 H 5000 3635.4 v 257.5 259.5 l 401.7,5.8 403.6,5.8 57.7,55.7 c 36.5,34.6 63.4,84.6 69.2,124.9 46.1,282.5 115.3,384.4 313.3,455.5 88.4,30.8 119.1,32.7 224.8,5.8 z m -1970,-1306.9 c 0,-228.7 25,-286.4 144.1,-344 76.9,-36.5 124.9,-38.4 1720.1,-38.4 1612.5,0 1641.3,0 1722,38.4 115.3,55.7 142.2,124.9 142.2,353.6 v 184.5 H 7285 c 403.6,0 420.9,-1.9 484.3,-44.2 34.6,-23.1 84.6,-73 107.6,-107.6 l 44.2,-65.3 V -392.6 c 0,-3963 11.5,-3638.2 -132.6,-3736.2 l -69.2,-46.1 H 5000 2280.5 l -69.2,46.1 c -144.1,98 -132.6,-226.8 -132.6,3736.2 v 3553.7 l 44.2,65.3 c 23.1,34.6 73,84.6 107.6,107.6 63.4,42.3 80.7,44.2 484.3,44.2 h 420.9 z"
           inkscape:connector-curvature="0" />
        <path
           id="path4594"
           d="m 3891,2202 c -21.1,-25 -144.1,-184.5 -272.9,-355.6 -128.8,-173 -236.4,-313.3 -242.2,-313.3 -3.8,0 -59.6,67.3 -123,151.8 -63.4,82.7 -128.8,155.7 -146.1,163.4 -146.1,55.7 -276.8,-73 -211.4,-205.6 59.6,-119.2 382.5,-520.8 434.4,-536.2 98,-32.7 140.3,7.7 470.9,449.7 178.7,234.5 334.4,449.7 347.9,478.6 30.7,59.6 1.9,161.4 -51.9,190.3 -63.4,34.6 -163.4,23 -205.7,-23.1 z"
           inkscape:connector-curvature="0" />
        <path
           id="path4596"
           d="m 4582.9,1763.8 c -155.7,-94.2 -157.6,-326.7 -1.9,-422.8 61.5,-36.5 94.2,-38.4 1228.1,-38.4 h 1164.7 l 65.3,44.2 c 42.3,28.8 75,73 94.2,124.9 25,71.1 25,90.3 0,161.4 -19.2,51.9 -51.9,96.1 -94.2,124.9 l -65.3,44.2 H 5809.1 c -1120.5,0.1 -1166.6,-1.9 -1226.2,-38.4 z"
           inkscape:connector-curvature="0" />
        <path
           id="path4598"
           d="M 3921.8,804.8 C 3893,783.7 3760.4,618.4 3623.9,435.8 3389.4,122.5 3376,109 3349.1,143.6 c -17.3,21.1 -71.1,92.2 -123,157.6 -50,65.4 -113.4,126.9 -142.2,138.4 -63.4,23.1 -151.8,-7.7 -182.6,-65.4 C 2857.1,289.6 2880.2,232 3058.9,-8.3 3268.4,-288.9 3293.4,-312 3376,-312 c 34.6,0 80.7,15.4 101.9,34.6 21.1,17.3 182.6,226.8 361.3,465.1 263.3,353.6 322.9,444 322.9,495.9 -0.1,123.1 -146.1,196.1 -240.3,121.2 z"
           inkscape:connector-curvature="0" />
        <path
           id="path4600"
           d="M 4569.5,339.7 C 4419.6,222.4 4435,3.3 4598.3,-85.1 c 61.5,-32.7 138.4,-34.6 1208.9,-34.6 1070.5,0 1147.4,1.9 1208.9,34.6 163.4,88.4 178.7,307.5 28.8,424.8 -50,40.4 -63.4,40.4 -1237.7,40.4 C 4632.9,380 4619.5,380 4569.5,339.7 Z"
           inkscape:connector-curvature="0" />
        <path
           id="path4602"
           d="m 3948.7,-561.7 c -21.1,-9.6 -159.5,-174.9 -305.6,-367.1 l -265.2,-349.8 -38.4,48 c -23.1,25 -80.7,99.9 -130.7,165.3 -86.5,111.5 -98,119.2 -169.1,119.2 -115.3,0 -167.2,-61.5 -153.8,-182.6 5.8,-57.7 382.5,-547.7 436.3,-568.9 99.9,-36.5 130.7,-7.7 470.9,438.2 180.7,238.3 340.2,457.4 353.6,486.2 38.4,76.9 1.9,169.1 -80.7,203.7 -34.6,15.4 -67.3,26.9 -69.2,25 -3.9,0.1 -25,-7.6 -48.1,-17.2 z"
           inkscape:connector-curvature="0" />
        <path
           id="path4604"
           d="m 4598.3,-1057.6 c -124.9,-67.3 -171.1,-226.8 -98,-344 82.6,-138.4 11.5,-130.7 1306.9,-130.7 1089.7,0 1168.5,1.9 1216.6,34.6 176.8,115.3 161.5,347.9 -28.8,447.8 -42.3,23 -249.9,26.9 -1191.6,26.9 -1068.6,0 -1143.6,-1.9 -1205.1,-34.6 z"
           inkscape:connector-curvature="0" />
        <path
           id="path4606"
           d="m 3927.6,-1959 c -13.5,-5.8 -142.2,-165.3 -284.5,-353.6 -142.2,-188.3 -261.4,-344 -267.1,-344 -3.8,0 -59.6,67.3 -123,151.8 -63.4,82.6 -128.8,155.7 -146.1,163.4 -109.6,40.4 -226.8,-32.7 -226.8,-142.2 0,-73 374.8,-576.6 447.8,-601.6 96.1,-32.7 140.3,9.6 472.8,451.7 178.7,234.5 334.4,449.7 347.9,478.6 30.7,59.6 1.9,161.4 -51.9,190.3 -38.4,19.1 -126.9,22.9 -169.1,5.6 z"
           inkscape:connector-curvature="0" />
        <path
           id="path4608"
           d="m 4581,-2483.6 c -113.4,-69.2 -149.9,-226.8 -80.7,-340.2 75,-124.9 30.8,-121.1 1312.7,-121.1 h 1160.8 l 65.3,44.2 c 42.3,28.8 75,73 94.2,124.9 25,71.1 25,90.3 0,161.4 -19.2,51.9 -51.9,96.1 -94.2,124.9 l -65.3,44.2 H 5809.1 c -1133.9,0.1 -1166.6,-1.8 -1228.1,-38.3 z"
           inkscape:connector-curvature="0" />
      </g>
    </g>
    <circle
       style="opacity:1;fill:#ffffff;fill-opacity:1;stroke:none;stroke-width:0.36083347;stroke-linecap:butt;stroke-miterlimit:4;stroke-dasharray:none;stroke-opacity:1"
       id="path4659"
       cx="181.23917"
       cy="247.74464"
       r="48.229168" />
    <path
       id="path4647"
       d="m 220.85575,238.94099 a 2.6407037,2.6407037 0 0 0 -2.64107,2.64107 v 2.64114 h -7.26793 a 29.75649,29.75649 0 0 0 -6.21535,-14.99038 l 5.14346,-5.1438 2.0703,1.753 a 2.6409854,2.6409854 0 1 0 3.73512,-3.73465 l -8.80352,-8.80372 a 2.6409401,2.6409401 0 0 0 -3.73498,3.73472 l 1.75306,2.07023 -5.1438,5.1438 a 29.7601,29.7601 0 0 0 -14.99038,-6.21502 v -7.26826 h 2.64107 a 2.64111,2.64111 0 0 0 0,-5.28222 h -12.32515 a 2.64111,2.64111 0 0 0 0,5.28222 h 2.64108 v 7.26826 a 29.7601,29.7601 0 0 0 -14.99032,6.21502 l -5.1438,-5.1438 1.75307,-2.07023 a 2.6409413,2.6409413 0 0 0 -3.73499,-3.73472 l -8.60081,8.80372 a 2.6409854,2.6409854 0 0 0 3.73512,3.73465 l 1.86759,-1.753 5.14346,5.1438 a 29.75649,29.75649 0 0 0 -6.21541,14.99038 h -7.26793 v -2.64114 a 2.64111,2.64111 0 0 0 -5.28222,0 v 12.32522 a 2.64111,2.64111 0 0 0 5.28222,0 v -2.64114 h 7.26793 a 29.75649,29.75649 0 0 0 6.21535,14.99038 l -5.1434,5.1438 -2.0703,-1.753 a 2.6409854,2.6409854 0 0 0 -3.73512,3.73466 l 8.80352,8.80371 a 2.6409413,2.6409413 0 1 0 3.73499,-3.73472 l -1.75307,-2.07023 5.1436,-5.14379 a 29.760012,29.760012 0 0 0 14.99052,6.21501 v 7.2682 h -2.64108 a 2.64111,2.64111 0 0 0 0,5.28222 h 12.32515 a 2.64111,2.64111 0 0 0 0,-5.28222 h -2.64107 v -7.2682 a 29.760012,29.760012 0 0 0 14.99058,-6.21501 l 5.14353,5.14379 -1.75306,2.07023 a 2.6409401,2.6409401 0 0 0 3.73498,3.73472 l 8.80352,-8.80371 a 2.6409854,2.6409854 0 1 0 -3.73512,-3.73466 l -2.07029,1.753 -5.14347,-5.1438 a 29.75649,29.75649 0 0 0 6.21542,-14.99038 h 7.26793 v 2.64114 a 2.64111,2.64111 0 0 0 5.28222,0 v -12.32522 a 2.6407037,2.6407037 0 0 0 -2.64115,-2.64107 z m -49.30067,1.76071 a 6.1625868,6.1625868 0 1 1 6.16258,-6.16257 6.1624812,6.1624812 0 0 1 -6.16258,6.16257 z m 20.24851,22.88959 a 3.5214782,3.5214782 0 1 1 3.5215,-3.52143 3.5215838,3.5215838 0 0 1 -3.5215,3.52143 z"
       class="a"
       inkscape:connector-curvature="0"
       style="fill:#418fde;stroke-width:1.76073897" />
  </g>
</svg>
